<svg xmlns="http://www.w3.org/2000/svg" xmlns:xlink="http://www.w3.org/1999/xlink" zoomAndPan="magnify" preserveAspectRatio="xMidYMid meet" version="1.0" viewBox="825.34 270.61 1187.54 850.82"><defs><g/><clipPath id="f6a899c418"><path d="M 1313 458 L 1626.257812 458 L 1626.257812 797 L 1313 797 Z M 1313 458 " clip-rule="nonzero"/></clipPath><clipPath id="1055ea2080"><path d="M 1133.414062 352.191406 L 1600 352.191406 L 1600 800.960938 L 1133.414062 800.960938 Z M 1133.414062 352.191406 " clip-rule="nonzero"/></clipPath><clipPath id="6ecbc39a59"><path d="M 1583 471 L 1701.535156 471 L 1701.535156 530 L 1583 530 Z M 1583 471 " clip-rule="nonzero"/></clipPath><clipPath id="e9c9c65a9f"><path d="M 1565 270.613281 L 1672 270.613281 L 1672 514 L 1565 514 Z M 1565 270.613281 " clip-rule="nonzero"/></clipPath><clipPath id="ff7ac6d1be"><path d="M 1157.175781 683 L 1257.347656 683 L 1257.347656 799 L 1157.175781 799 Z M 1157.175781 683 " clip-rule="nonzero"/></clipPath></defs><g clip-path="url(#f6a899c418)"><path fill="#e4e1e0" d="M 1313.949219 796.585938 L 1313.949219 617.808594 L 1468.421875 458.03125 L 1626.195312 611.304688 L 1626.195312 796.585938 Z M 1313.949219 796.585938 " fill-opacity="1" fill-rule="nonzero"/></g><path fill="#000000" d="M 1288.21875 798.863281 L 1284.023438 798.863281 L 1284.023438 617.929688 L 1438.523438 460.128906 L 1441.554688 463.066406 L 1288.21875 619.636719 Z M 1288.21875 798.863281 " fill-opacity="1" fill-rule="nonzero"/><g clip-path="url(#1055ea2080)"><path fill="#000000" d="M 1599.445312 800.960938 L 1437.925781 800.960938 L 1437.925781 461.6875 L 1330.113281 358.035156 L 1137.675781 550.355469 L 1137.675781 798.890625 L 1133.476562 798.890625 L 1133.476562 548.617188 L 1330.054688 352.191406 L 1599.445312 611.15625 Z M 1442.121094 796.765625 L 1595.214844 796.765625 L 1595.214844 612.894531 L 1442.121094 465.730469 Z M 1442.121094 796.765625 " fill-opacity="1" fill-rule="nonzero"/></g><path fill="#000000" d="M 1491.246094 512.027344 L 1495.441406 512.027344 L 1495.441406 798.863281 L 1491.246094 798.863281 Z M 1491.246094 512.027344 " fill-opacity="1" fill-rule="nonzero"/><path fill="#000000" d="M 1544.894531 563.871094 L 1549.09375 563.871094 L 1549.09375 798.863281 L 1544.894531 798.863281 Z M 1544.894531 563.871094 " fill-opacity="1" fill-rule="nonzero"/><g clip-path="url(#6ecbc39a59)"><path fill="#a8c082" d="M 1583.214844 529.375 C 1594.027344 508.589844 1611.816406 491.535156 1633 481.632812 C 1654.1875 471.730469 1678.644531 469.039062 1701.464844 474.105469 C 1673.492188 509.277344 1628.035156 531.054688 1583.214844 529.375 " fill-opacity="1" fill-rule="nonzero"/></g><path fill="#a8c082" d="M 1547.273438 514.175781 C 1559.863281 480.332031 1561.015625 442.320312 1550.5 407.773438 C 1539.980469 373.226562 1517.851562 342.347656 1488.558594 321.339844 C 1477.214844 389.726562 1499.171875 464.398438 1547.273438 514.175781 " fill-opacity="1" fill-rule="nonzero"/><g clip-path="url(#e9c9c65a9f)"><path fill="#a8c082" d="M 1572.824219 513.175781 C 1560.421875 467.960938 1563.289062 418.679688 1580.851562 375.222656 C 1598.414062 331.765625 1630.5625 294.390625 1670.851562 270.609375 C 1677.675781 360.339844 1640.722656 454.359375 1572.824219 513.175781 " fill-opacity="1" fill-rule="nonzero"/></g><g clip-path="url(#ff7ac6d1be)"><path fill="#de9d9d" d="M 1258.425781 697.8125 C 1257.1875 688.0625 1250.804688 680.796875 1238.191406 684.519531 C 1233.023438 686.023438 1229.179688 689.394531 1224.988281 692.433594 C 1216.894531 698.253906 1210.453125 706.082031 1206.316406 715.152344 C 1204.75 718.519531 1202.949219 721.769531 1200.96875 725.640625 C 1199.878906 724.339844 1199.257812 723.71875 1198.785156 723.011719 C 1194.027344 715.742188 1187.617188 710.21875 1180.113281 706.082031 C 1176.660156 704.191406 1172.789062 702.894531 1168.976562 701.769531 C 1167.53125 701.355469 1165.257812 701.652344 1164.132812 702.539062 C 1159.910156 705.875 1157.191406 710.394531 1157.457031 715.890625 C 1157.632812 719.730469 1158.195312 723.6875 1159.40625 727.324219 C 1164.785156 743.15625 1172.285156 757.691406 1185.195312 768.945312 C 1190.71875 773.761719 1195.976562 778.871094 1201.207031 784.011719 C 1206.347656 789.03125 1212.105469 793.40625 1218.339844 797.007812 C 1224.128906 800.375 1227.761719 799.519531 1230.628906 793.582031 C 1233.433594 787.761719 1235.917969 781.796875 1238.515625 775.886719 C 1244.570312 762.179688 1248.796875 747.851562 1252.398438 733.347656 C 1254.351562 725.402344 1256.035156 717.367188 1257.539062 709.332031 C 1258.21875 705.523438 1258.898438 701.535156 1258.425781 697.8125 Z M 1258.425781 697.8125 " fill-opacity="1" fill-rule="nonzero"/></g><g fill="#000000" fill-opacity="1"><g transform="translate(816.530983, 970.660258)"><g><path d="M 8.8125 0 L 8.8125 -1.765625 C 10.3125 -2.191406 11.539062 -2.910156 12.5 -3.921875 C 13.46875 -4.941406 14.164062 -6.707031 14.59375 -9.21875 C 15.019531 -11.726562 15.234375 -15.441406 15.234375 -20.359375 L 15.234375 -91.859375 C 15.234375 -96.773438 15.019531 -100.488281 14.59375 -103 C 14.164062 -105.507812 13.46875 -107.296875 12.5 -108.359375 C 11.539062 -109.429688 10.3125 -110.128906 8.8125 -110.453125 L 8.8125 -112.21875 L 30.625 -112.21875 L 30.625 -110.453125 C 29.125 -110.128906 27.890625 -109.429688 26.921875 -108.359375 C 25.960938 -107.296875 25.269531 -105.507812 24.84375 -103 C 24.414062 -100.488281 24.203125 -96.773438 24.203125 -91.859375 L 24.203125 -60.59375 L 90.890625 -60.59375 L 90.890625 -91.859375 C 90.890625 -96.773438 90.675781 -100.488281 90.25 -103 C 89.820312 -105.507812 89.128906 -107.296875 88.171875 -108.359375 C 87.210938 -109.429688 85.984375 -110.128906 84.484375 -110.453125 L 84.484375 -112.21875 L 106.28125 -112.21875 L 106.28125 -110.453125 C 104.789062 -110.128906 103.5625 -109.429688 102.59375 -108.359375 C 101.632812 -107.296875 100.941406 -105.507812 100.515625 -103 C 100.085938 -100.488281 99.875 -96.773438 99.875 -91.859375 L 99.875 -20.359375 C 99.875 -15.441406 100.085938 -11.726562 100.515625 -9.21875 C 100.941406 -6.707031 101.632812 -4.941406 102.59375 -3.921875 C 103.5625 -2.910156 104.789062 -2.191406 106.28125 -1.765625 L 106.28125 0 L 84.484375 0 L 84.484375 -1.765625 C 85.984375 -2.191406 87.210938 -2.910156 88.171875 -3.921875 C 89.128906 -4.941406 89.820312 -6.707031 90.25 -9.21875 C 90.675781 -11.726562 90.890625 -15.441406 90.890625 -20.359375 L 90.890625 -58.359375 L 24.203125 -58.359375 L 24.203125 -20.359375 C 24.203125 -15.441406 24.414062 -11.726562 24.84375 -9.21875 C 25.269531 -6.707031 25.960938 -4.941406 26.921875 -3.921875 C 27.890625 -2.910156 29.125 -2.191406 30.625 -1.765625 L 30.625 0 Z M 8.8125 0 "/></g></g></g><g fill="#000000" fill-opacity="1"><g transform="translate(945.075858, 970.660258)"><g><path d="M 44.734375 1.609375 C 40.347656 1.609375 35.910156 0.78125 31.421875 -0.875 C 26.929688 -2.53125 22.816406 -4.988281 19.078125 -8.25 C 15.335938 -11.507812 12.316406 -15.648438 10.015625 -20.671875 C 7.722656 -25.703125 6.578125 -31.582031 6.578125 -38.3125 C 6.578125 -46.644531 8.421875 -54.046875 12.109375 -60.515625 C 15.796875 -66.984375 20.84375 -72.0625 27.25 -75.75 C 33.664062 -79.4375 40.878906 -81.28125 48.890625 -81.28125 C 58.085938 -81.28125 65.488281 -78.6875 71.09375 -73.5 C 76.707031 -68.320312 79.726562 -61.617188 80.15625 -53.390625 L 15.703125 -53.390625 C 15.066406 -50.390625 14.75 -47.179688 14.75 -43.765625 C 14.75 -36.066406 16.269531 -29.332031 19.3125 -23.5625 C 22.363281 -17.789062 26.585938 -13.328125 31.984375 -10.171875 C 37.378906 -7.023438 43.601562 -5.453125 50.65625 -5.453125 C 57.175781 -5.453125 62.734375 -6.835938 67.328125 -9.609375 C 71.921875 -12.390625 76.25 -16.082031 80.3125 -20.6875 L 81.59375 -19.390625 C 77.101562 -13.835938 71.785156 -8.945312 65.640625 -4.71875 C 59.503906 -0.5 52.535156 1.609375 44.734375 1.609375 Z M 16.03125 -55.3125 L 71.171875 -55.3125 C 70.859375 -57.34375 70.085938 -59.664062 68.859375 -62.28125 C 67.628906 -64.894531 65.890625 -67.429688 63.640625 -69.890625 C 61.398438 -72.347656 58.59375 -74.40625 55.21875 -76.0625 C 51.851562 -77.71875 47.875 -78.546875 43.28125 -78.546875 C 36.445312 -78.546875 30.648438 -76.460938 25.890625 -72.296875 C 21.128906 -68.128906 17.84375 -62.46875 16.03125 -55.3125 Z M 16.03125 -55.3125 "/></g></g></g><g fill="#000000" fill-opacity="1"><g transform="translate(1045.252247, 970.660258)"><g><path d="M 68.78125 0 C 66.632812 0 65.5625 -1.066406 65.5625 -3.203125 L 65.5625 -33.828125 C 63.75 -26.878906 60.972656 -20.734375 57.234375 -15.390625 C 53.492188 -10.046875 49.21875 -5.875 44.40625 -2.875 C 39.59375 0.113281 34.675781 1.609375 29.65625 1.609375 C 25.695312 1.609375 21.925781 0.832031 18.34375 -0.71875 C 14.769531 -2.269531 11.882812 -4.59375 9.6875 -7.6875 C 7.5 -10.789062 6.40625 -14.691406 6.40625 -19.390625 C 6.40625 -25.054688 8.0625 -29.625 11.375 -33.09375 C 14.695312 -36.570312 19.054688 -39.378906 24.453125 -41.515625 C 29.847656 -43.660156 35.59375 -45.53125 41.6875 -47.125 L 65.40625 -53.390625 C 64.976562 -61.191406 62.8125 -67.09375 58.90625 -71.09375 C 55.007812 -75.101562 49.210938 -77.109375 41.515625 -77.109375 C 36.390625 -77.109375 31.421875 -75.851562 26.609375 -73.34375 C 21.796875 -70.832031 17.46875 -67.066406 13.625 -62.046875 L 12.1875 -63.15625 C 16.882812 -69.144531 22.007812 -73.660156 27.5625 -76.703125 C 33.125 -79.753906 39.21875 -81.28125 45.84375 -81.28125 C 55.570312 -81.28125 62.679688 -78.738281 67.171875 -73.65625 C 71.660156 -68.582031 73.90625 -61.929688 73.90625 -53.703125 L 73.90625 -20.359375 C 73.90625 -15.441406 74.117188 -11.726562 74.546875 -9.21875 C 74.972656 -6.707031 75.664062 -4.941406 76.625 -3.921875 C 77.59375 -2.910156 78.820312 -2.191406 80.3125 -1.765625 L 80.3125 0 Z M 15.234375 -22.609375 C 15.335938 -17.472656 16.992188 -13.328125 20.203125 -10.171875 C 23.410156 -7.023438 27.789062 -5.453125 33.34375 -5.453125 C 38.050781 -5.453125 42.351562 -6.625 46.25 -8.96875 C 50.144531 -11.320312 53.535156 -14.476562 56.421875 -18.4375 C 59.316406 -22.394531 61.5625 -26.75 63.15625 -31.5 C 64.757812 -36.257812 65.5625 -41.039062 65.5625 -45.84375 L 65.5625 -51.453125 L 42.328125 -45.375 C 33.878906 -43.125 27.222656 -40.394531 22.359375 -37.1875 C 17.492188 -33.988281 15.117188 -29.128906 15.234375 -22.609375 Z M 15.234375 -22.609375 "/></g></g></g><g fill="#000000" fill-opacity="1"><g transform="translate(1143.505301, 970.660258)"><g><path d="M 5.9375 0 L 5.9375 -1.765625 C 7.425781 -2.191406 8.648438 -2.910156 9.609375 -3.921875 C 10.578125 -4.941406 11.273438 -6.707031 11.703125 -9.21875 C 12.128906 -11.726562 12.34375 -15.441406 12.34375 -20.359375 L 12.34375 -57.234375 C 12.34375 -61.609375 12.15625 -64.863281 11.78125 -67 C 11.40625 -69.144531 10.738281 -70.671875 9.78125 -71.578125 C 8.820312 -72.484375 7.539062 -73.257812 5.9375 -73.90625 L 5.9375 -75.34375 L 19.5625 -81.28125 L 20.6875 -80.3125 L 20.6875 -59.953125 C 21.96875 -63.378906 23.675781 -66.503906 25.8125 -69.328125 C 27.945312 -72.160156 30.03125 -74.378906 32.0625 -75.984375 C 34.09375 -77.484375 36.46875 -78.738281 39.1875 -79.75 C 41.914062 -80.769531 45.148438 -81.28125 48.890625 -81.28125 C 52.628906 -81.28125 55.351562 -80.878906 57.0625 -80.078125 C 58.78125 -79.273438 59.640625 -78.394531 59.640625 -77.4375 C 59.640625 -75.71875 58.863281 -74.003906 57.3125 -72.296875 C 55.757812 -70.585938 53.914062 -69.734375 51.78125 -69.734375 C 49.851562 -69.734375 47.257812 -70.132812 44 -70.9375 C 40.738281 -71.738281 36.972656 -72.675781 32.703125 -73.75 C 30.890625 -72.675781 29.097656 -70.882812 27.328125 -68.375 C 25.566406 -65.863281 24.070312 -63.164062 22.84375 -60.28125 C 21.613281 -57.394531 20.894531 -54.722656 20.6875 -52.265625 L 20.6875 -20.359375 C 20.6875 -15.441406 20.898438 -11.726562 21.328125 -9.21875 C 21.753906 -6.707031 22.445312 -4.941406 23.40625 -3.921875 C 24.363281 -2.910156 25.59375 -2.191406 27.09375 -1.765625 L 27.09375 0 Z M 5.9375 0 "/></g></g></g><g fill="#000000" fill-opacity="1"><g transform="translate(1218.839193, 970.660258)"><g><path d="M 30.625 1.609375 C 26.019531 1.609375 22.222656 0.03125 19.234375 -3.125 C 16.242188 -6.28125 14.75 -11.863281 14.75 -19.875 L 14.75 -78.234375 L 4.484375 -78.234375 L 4.484375 -80.15625 L 21.328125 -98.265625 L 23.078125 -98.265625 L 23.078125 -80.15625 L 47.125 -80.15625 L 46.171875 -78.234375 L 23.078125 -78.234375 L 23.078125 -20.203125 C 23.078125 -14.210938 24.253906 -10.039062 26.609375 -7.6875 C 28.960938 -5.34375 31.796875 -4.171875 35.109375 -4.171875 C 37.890625 -4.171875 40.691406 -4.890625 43.515625 -6.328125 C 46.347656 -7.773438 49.101562 -9.992188 51.78125 -12.984375 L 53.0625 -11.703125 C 51.457031 -9.773438 49.453125 -7.769531 47.046875 -5.6875 C 44.640625 -3.601562 42.046875 -1.863281 39.265625 -0.46875 C 36.492188 0.914062 33.613281 1.609375 30.625 1.609375 Z M 30.625 1.609375 "/></g></g></g><g fill="#000000" fill-opacity="1"><g transform="translate(1285.197705, 970.660258)"><g/></g></g><g fill="#000000" fill-opacity="1"><g transform="translate(1333.926074, 970.660258)"><g><path d="M 99.546875 1.125 C 97.410156 1.125 94.632812 0.0546875 91.21875 -2.078125 C 87.800781 -4.222656 84.0625 -7.054688 80 -10.578125 C 75.9375 -14.109375 71.820312 -17.957031 67.65625 -22.125 C 63.375 -13.46875 58.375 -7.347656 52.65625 -3.765625 C 46.9375 -0.179688 41.140625 1.609375 35.265625 1.609375 C 29.816406 1.609375 24.738281 0.429688 20.03125 -1.921875 C 15.332031 -4.273438 11.539062 -7.722656 8.65625 -12.265625 C 5.769531 -16.804688 4.328125 -22.226562 4.328125 -28.53125 C 4.328125 -32.914062 5.207031 -37.328125 6.96875 -41.765625 C 8.738281 -46.203125 11.707031 -50.289062 15.875 -54.03125 C 20.039062 -57.769531 25.8125 -60.8125 33.1875 -63.15625 C 30.300781 -67.21875 28.054688 -71.117188 26.453125 -74.859375 C 24.847656 -78.609375 24.046875 -82.566406 24.046875 -86.734375 C 24.046875 -91.429688 25.25 -95.8125 27.65625 -99.875 C 30.0625 -103.9375 33.691406 -107.195312 38.546875 -109.65625 C 43.410156 -112.113281 49.53125 -113.34375 56.90625 -113.34375 C 60.113281 -113.34375 63.535156 -112.96875 67.171875 -112.21875 C 70.804688 -111.46875 74.382812 -110.078125 77.90625 -108.046875 L 79.671875 -91.53125 L 78.546875 -91.21875 C 76.304688 -96.5625 73.71875 -100.59375 70.78125 -103.3125 C 67.84375 -106.039062 64.71875 -107.910156 61.40625 -108.921875 C 58.09375 -109.941406 54.722656 -110.453125 51.296875 -110.453125 C 46.921875 -110.453125 43.207031 -109.515625 40.15625 -107.640625 C 37.113281 -105.773438 34.816406 -103.398438 33.265625 -100.515625 C 31.710938 -97.628906 30.9375 -94.53125 30.9375 -91.21875 C 30.9375 -87.800781 31.738281 -84.25 33.34375 -80.5625 C 34.945312 -76.875 36.953125 -73.289062 39.359375 -69.8125 C 41.765625 -66.34375 44.25 -63.082031 46.8125 -60.03125 C 49.375 -56.988281 51.566406 -54.398438 53.390625 -52.265625 C 58.191406 -46.492188 63.179688 -40.800781 68.359375 -35.1875 C 73.546875 -29.570312 78.597656 -24.46875 83.515625 -19.875 C 88.429688 -15.28125 92.945312 -11.59375 97.0625 -8.8125 C 101.175781 -6.039062 104.570312 -4.65625 107.25 -4.65625 C 109.707031 -4.65625 111.628906 -5.5625 113.015625 -7.375 C 114.410156 -9.1875 115.453125 -11.507812 116.140625 -14.34375 C 116.835938 -17.175781 117.265625 -20.113281 117.421875 -23.15625 C 117.585938 -26.207031 117.671875 -28.960938 117.671875 -31.421875 C 117.671875 -34.734375 117.242188 -38.335938 116.390625 -42.234375 C 115.535156 -46.140625 114.4375 -49.613281 113.09375 -52.65625 C 111.757812 -55.707031 110.238281 -57.5 108.53125 -58.03125 L 75.1875 -58.03125 L 76.140625 -59.953125 L 132.421875 -59.953125 L 131.453125 -58.03125 L 112.703125 -58.03125 C 117.078125 -56 120.46875 -52.875 122.875 -48.65625 C 125.28125 -44.4375 126.484375 -39.8125 126.484375 -34.78125 C 126.484375 -29.007812 125.546875 -23.90625 123.671875 -19.46875 C 121.804688 -15.039062 119.457031 -11.300781 116.625 -8.25 C 113.789062 -5.207031 110.847656 -2.882812 107.796875 -1.28125 C 104.753906 0.320312 102.003906 1.125 99.546875 1.125 Z M 12.828125 -33.34375 C 12.828125 -28.53125 13.921875 -24.015625 16.109375 -19.796875 C 18.296875 -15.578125 21.394531 -12.15625 25.40625 -9.53125 C 29.414062 -6.914062 34.195312 -5.609375 39.75 -5.609375 C 41.570312 -5.609375 44.03125 -6.035156 47.125 -6.890625 C 50.226562 -7.742188 53.515625 -9.453125 56.984375 -12.015625 C 60.460938 -14.585938 63.644531 -18.382812 66.53125 -23.40625 C 62.894531 -27.144531 59.3125 -30.988281 55.78125 -34.9375 C 52.257812 -38.894531 49.109375 -42.640625 46.328125 -46.171875 C 43.972656 -49.160156 41.78125 -51.9375 39.75 -54.5 C 37.726562 -57.070312 35.804688 -59.53125 33.984375 -61.875 C 27.890625 -59.738281 23.316406 -56.929688 20.265625 -53.453125 C 17.222656 -49.984375 15.222656 -46.457031 14.265625 -42.875 C 13.304688 -39.300781 12.828125 -36.125 12.828125 -33.34375 Z M 12.828125 -33.34375 "/></g></g></g><g fill="#000000" fill-opacity="1"><g transform="translate(1484.10798, 970.660258)"><g/></g></g><g fill="#000000" fill-opacity="1"><g transform="translate(1532.836379, 970.660258)"><g><path d="M 8.8125 0 L 8.8125 -1.765625 C 10.3125 -2.191406 11.539062 -2.910156 12.5 -3.921875 C 13.46875 -4.941406 14.164062 -6.707031 14.59375 -9.21875 C 15.019531 -11.726562 15.234375 -15.441406 15.234375 -20.359375 L 15.234375 -91.859375 C 15.234375 -96.773438 15.019531 -100.488281 14.59375 -103 C 14.164062 -105.507812 13.46875 -107.296875 12.5 -108.359375 C 11.539062 -109.429688 10.3125 -110.128906 8.8125 -110.453125 L 8.8125 -112.21875 L 30.625 -112.21875 L 30.625 -110.453125 C 29.125 -110.128906 27.890625 -109.429688 26.921875 -108.359375 C 25.960938 -107.296875 25.269531 -105.507812 24.84375 -103 C 24.414062 -100.488281 24.203125 -96.773438 24.203125 -91.859375 L 24.203125 -60.59375 L 90.890625 -60.59375 L 90.890625 -91.859375 C 90.890625 -96.773438 90.675781 -100.488281 90.25 -103 C 89.820312 -105.507812 89.128906 -107.296875 88.171875 -108.359375 C 87.210938 -109.429688 85.984375 -110.128906 84.484375 -110.453125 L 84.484375 -112.21875 L 106.28125 -112.21875 L 106.28125 -110.453125 C 104.789062 -110.128906 103.5625 -109.429688 102.59375 -108.359375 C 101.632812 -107.296875 100.941406 -105.507812 100.515625 -103 C 100.085938 -100.488281 99.875 -96.773438 99.875 -91.859375 L 99.875 -20.359375 C 99.875 -15.441406 100.085938 -11.726562 100.515625 -9.21875 C 100.941406 -6.707031 101.632812 -4.941406 102.59375 -3.921875 C 103.5625 -2.910156 104.789062 -2.191406 106.28125 -1.765625 L 106.28125 0 L 84.484375 0 L 84.484375 -1.765625 C 85.984375 -2.191406 87.210938 -2.910156 88.171875 -3.921875 C 89.128906 -4.941406 89.820312 -6.707031 90.25 -9.21875 C 90.675781 -11.726562 90.890625 -15.441406 90.890625 -20.359375 L 90.890625 -58.359375 L 24.203125 -58.359375 L 24.203125 -20.359375 C 24.203125 -15.441406 24.414062 -11.726562 24.84375 -9.21875 C 25.269531 -6.707031 25.960938 -4.941406 26.921875 -3.921875 C 27.890625 -2.910156 29.125 -2.191406 30.625 -1.765625 L 30.625 0 Z M 8.8125 0 "/></g></g></g><g fill="#000000" fill-opacity="1"><g transform="translate(1661.381286, 970.660258)"><g><path d="M 47.765625 1.609375 C 42.859375 1.609375 37.945312 0.78125 33.03125 -0.875 C 28.113281 -2.53125 23.675781 -5.066406 19.71875 -8.484375 C 15.757812 -11.910156 12.578125 -16.210938 10.171875 -21.390625 C 7.773438 -26.578125 6.578125 -32.753906 6.578125 -39.921875 C 6.578125 -48.035156 8.472656 -55.191406 12.265625 -61.390625 C 16.054688 -67.597656 21.101562 -72.460938 27.40625 -75.984375 C 33.71875 -79.515625 40.503906 -81.28125 47.765625 -81.28125 C 52.796875 -81.28125 57.710938 -80.453125 62.515625 -78.796875 C 67.328125 -77.140625 71.738281 -74.625 75.75 -71.25 C 79.757812 -67.882812 82.9375 -63.582031 85.28125 -58.34375 C 87.632812 -53.113281 88.8125 -46.914062 88.8125 -39.75 C 88.8125 -32.914062 87.582031 -26.90625 85.125 -21.71875 C 82.664062 -16.539062 79.40625 -12.238281 75.34375 -8.8125 C 71.28125 -5.394531 66.84375 -2.800781 62.03125 -1.03125 C 57.226562 0.726562 52.472656 1.609375 47.765625 1.609375 Z M 14.90625 -46.015625 C 14.90625 -40.554688 15.8125 -35.179688 17.625 -29.890625 C 19.445312 -24.609375 22.015625 -19.828125 25.328125 -15.546875 C 28.640625 -11.273438 32.539062 -7.851562 37.03125 -5.28125 C 41.519531 -2.71875 46.4375 -1.4375 51.78125 -1.4375 C 57.976562 -1.4375 63.238281 -2.851562 67.5625 -5.6875 C 71.894531 -8.519531 75.207031 -12.34375 77.5 -17.15625 C 79.800781 -21.96875 80.953125 -27.363281 80.953125 -33.34375 C 80.953125 -38.582031 80.039062 -43.875 78.21875 -49.21875 C 76.40625 -54.5625 73.867188 -59.445312 70.609375 -63.875 C 67.359375 -68.3125 63.488281 -71.863281 59 -74.53125 C 54.507812 -77.207031 49.59375 -78.546875 44.25 -78.546875 C 37.9375 -78.546875 32.585938 -77.128906 28.203125 -74.296875 C 23.828125 -71.472656 20.515625 -67.601562 18.265625 -62.6875 C 16.023438 -57.769531 14.90625 -52.210938 14.90625 -46.015625 Z M 14.90625 -46.015625 "/></g></g></g><g fill="#000000" fill-opacity="1"><g transform="translate(1770.853517, 970.660258)"><g><path d="M 5.9375 0 L 5.9375 -1.765625 C 7.425781 -2.191406 8.648438 -2.910156 9.609375 -3.921875 C 10.578125 -4.941406 11.273438 -6.707031 11.703125 -9.21875 C 12.128906 -11.726562 12.34375 -15.441406 12.34375 -20.359375 L 12.34375 -57.234375 C 12.34375 -61.609375 12.15625 -64.863281 11.78125 -67 C 11.40625 -69.144531 10.738281 -70.671875 9.78125 -71.578125 C 8.820312 -72.484375 7.539062 -73.257812 5.9375 -73.90625 L 5.9375 -75.34375 L 19.5625 -81.28125 L 20.6875 -80.3125 L 20.6875 -66.6875 C 25.914062 -70.644531 31.492188 -74.066406 37.421875 -76.953125 C 43.359375 -79.835938 48.945312 -81.28125 54.1875 -81.28125 C 66.476562 -81.28125 74.117188 -76.039062 77.109375 -65.5625 C 82.453125 -69.84375 88.195312 -73.53125 94.34375 -76.625 C 100.488281 -79.726562 106.335938 -81.28125 111.890625 -81.28125 C 120.117188 -81.28125 126.210938 -78.976562 130.171875 -74.375 C 134.128906 -69.78125 136.109375 -63.15625 136.109375 -54.5 L 136.109375 -20.359375 C 136.109375 -15.441406 136.320312 -11.726562 136.75 -9.21875 C 137.175781 -6.707031 137.867188 -4.941406 138.828125 -3.921875 C 139.785156 -2.910156 141.015625 -2.191406 142.515625 -1.765625 L 142.515625 0 L 121.359375 0 L 121.359375 -1.765625 C 122.847656 -2.191406 124.070312 -2.910156 125.03125 -3.921875 C 126 -4.941406 126.695312 -6.707031 127.125 -9.21875 C 127.550781 -11.726562 127.765625 -15.441406 127.765625 -20.359375 L 127.765625 -51.625 C 127.765625 -60.382812 126.023438 -66.820312 122.546875 -70.9375 C 119.078125 -75.050781 114.082031 -77.109375 107.5625 -77.109375 C 102.113281 -77.109375 96.847656 -75.742188 91.765625 -73.015625 C 86.691406 -70.296875 81.914062 -67.222656 77.4375 -63.796875 C 78.070312 -60.910156 78.390625 -57.8125 78.390625 -54.5 L 78.390625 -20.359375 C 78.390625 -15.441406 78.601562 -11.726562 79.03125 -9.21875 C 79.457031 -6.707031 80.148438 -4.941406 81.109375 -3.921875 C 82.078125 -2.910156 83.3125 -2.191406 84.8125 -1.765625 L 84.8125 0 L 63.640625 0 L 63.640625 -1.765625 C 65.140625 -2.191406 66.367188 -2.910156 67.328125 -3.921875 C 68.296875 -4.941406 68.992188 -6.707031 69.421875 -9.21875 C 69.847656 -11.726562 70.0625 -15.441406 70.0625 -20.359375 L 70.0625 -51.625 C 70.0625 -60.382812 68.320312 -66.820312 64.84375 -70.9375 C 61.375 -75.050781 56.378906 -77.109375 49.859375 -77.109375 C 44.617188 -77.109375 39.539062 -75.828125 34.625 -73.265625 C 29.707031 -70.703125 25.0625 -67.765625 20.6875 -64.453125 L 20.6875 -20.359375 C 20.6875 -15.441406 20.898438 -11.726562 21.328125 -9.21875 C 21.753906 -6.707031 22.445312 -4.941406 23.40625 -3.921875 C 24.363281 -2.910156 25.59375 -2.191406 27.09375 -1.765625 L 27.09375 0 Z M 5.9375 0 "/></g></g></g><g fill="#000000" fill-opacity="1"><g transform="translate(1931.292963, 970.660258)"><g><path d="M 44.734375 1.609375 C 40.347656 1.609375 35.910156 0.78125 31.421875 -0.875 C 26.929688 -2.53125 22.816406 -4.988281 19.078125 -8.25 C 15.335938 -11.507812 12.316406 -15.648438 10.015625 -20.671875 C 7.722656 -25.703125 6.578125 -31.582031 6.578125 -38.3125 C 6.578125 -46.644531 8.421875 -54.046875 12.109375 -60.515625 C 15.796875 -66.984375 20.84375 -72.0625 27.25 -75.75 C 33.664062 -79.4375 40.878906 -81.28125 48.890625 -81.28125 C 58.085938 -81.28125 65.488281 -78.6875 71.09375 -73.5 C 76.707031 -68.320312 79.726562 -61.617188 80.15625 -53.390625 L 15.703125 -53.390625 C 15.066406 -50.390625 14.75 -47.179688 14.75 -43.765625 C 14.75 -36.066406 16.269531 -29.332031 19.3125 -23.5625 C 22.363281 -17.789062 26.585938 -13.328125 31.984375 -10.171875 C 37.378906 -7.023438 43.601562 -5.453125 50.65625 -5.453125 C 57.175781 -5.453125 62.734375 -6.835938 67.328125 -9.609375 C 71.921875 -12.390625 76.25 -16.082031 80.3125 -20.6875 L 81.59375 -19.390625 C 77.101562 -13.835938 71.785156 -8.945312 65.640625 -4.71875 C 59.503906 -0.5 52.535156 1.609375 44.734375 1.609375 Z M 16.03125 -55.3125 L 71.171875 -55.3125 C 70.859375 -57.34375 70.085938 -59.664062 68.859375 -62.28125 C 67.628906 -64.894531 65.890625 -67.429688 63.640625 -69.890625 C 61.398438 -72.347656 58.59375 -74.40625 55.21875 -76.0625 C 51.851562 -77.71875 47.875 -78.546875 43.28125 -78.546875 C 36.445312 -78.546875 30.648438 -76.460938 25.890625 -72.296875 C 21.128906 -68.128906 17.84375 -62.46875 16.03125 -55.3125 Z M 16.03125 -55.3125 "/></g></g></g><g fill="#a8c082" fill-opacity="1"><g transform="translate(1031.950522, 1120.136879)"><g><path d="M 41.75 1.296875 C 34.894531 1.296875 28.800781 -0.25 23.46875 -3.34375 C 18.144531 -6.4375 13.96875 -10.710938 10.9375 -16.171875 C 7.90625 -21.640625 6.390625 -27.90625 6.390625 -34.96875 C 6.390625 -42.019531 7.90625 -48.273438 10.9375 -53.734375 C 13.96875 -59.203125 18.128906 -63.484375 23.421875 -66.578125 C 28.710938 -69.671875 34.753906 -71.21875 41.546875 -71.21875 C 46.941406 -71.21875 51.882812 -70.25 56.375 -68.3125 C 60.875 -66.382812 64.722656 -63.707031 67.921875 -60.28125 C 71.117188 -56.851562 73.453125 -52.875 74.921875 -48.34375 L 68.328125 -48.34375 C 66.128906 -53.539062 62.734375 -57.632812 58.140625 -60.625 C 53.546875 -63.625 48.117188 -65.125 41.859375 -65.125 C 36.054688 -65.125 30.957031 -63.859375 26.5625 -61.328125 C 22.175781 -58.796875 18.75 -55.265625 16.28125 -50.734375 C 13.820312 -46.210938 12.59375 -40.957031 12.59375 -34.96875 C 12.59375 -29.039062 13.820312 -23.796875 16.28125 -19.234375 C 18.75 -14.671875 22.195312 -11.125 26.625 -8.59375 C 31.050781 -6.0625 36.128906 -4.796875 41.859375 -4.796875 C 47.316406 -4.796875 52.109375 -5.910156 56.234375 -8.140625 C 60.367188 -10.367188 63.679688 -13.460938 66.171875 -17.421875 C 68.671875 -21.390625 70.117188 -25.90625 70.515625 -30.96875 L 39.5625 -30.96875 L 39.5625 -36.765625 L 77.015625 -36.765625 C 77.078125 -29.367188 75.644531 -22.804688 72.71875 -17.078125 C 69.789062 -11.347656 65.675781 -6.851562 60.375 -3.59375 C 55.082031 -0.332031 48.875 1.296875 41.75 1.296875 Z M 41.75 1.296875 "/></g></g></g><g fill="#a8c082" fill-opacity="1"><g transform="translate(1120.0279, 1120.136879)"><g><path d="M 11.28125 0 L 11.28125 -69.921875 L 37.15625 -69.921875 C 41.882812 -69.921875 45.976562 -69.019531 49.4375 -67.21875 C 52.90625 -65.425781 55.601562 -62.914062 57.53125 -59.6875 C 59.46875 -56.457031 60.4375 -52.609375 60.4375 -48.140625 C 60.4375 -42.347656 58.835938 -37.570312 55.640625 -33.8125 C 52.441406 -30.050781 48.078125 -27.703125 42.546875 -26.765625 L 61.53125 0 L 54.234375 0 L 35.46875 -26.265625 L 17.375 -26.265625 L 17.375 0 Z M 17.375 -32.0625 L 36.5625 -32.0625 C 42.082031 -32.0625 46.40625 -33.492188 49.53125 -36.359375 C 52.664062 -39.222656 54.234375 -43.148438 54.234375 -48.140625 C 54.234375 -53.078125 52.664062 -56.972656 49.53125 -59.828125 C 46.40625 -62.691406 42.082031 -64.125 36.5625 -64.125 L 17.375 -64.125 Z M 17.375 -32.0625 "/></g></g></g><g fill="#a8c082" fill-opacity="1"><g transform="translate(1193.326206, 1120.136879)"><g><path d="M 11.28125 0 L 11.28125 -69.921875 L 52.4375 -69.921875 L 52.4375 -64.234375 L 17.375 -64.234375 L 17.375 -38.453125 L 49.84375 -38.453125 L 49.84375 -32.859375 L 17.375 -32.859375 L 17.375 -5.6875 L 53.546875 -5.6875 L 53.546875 0 Z M 11.28125 0 "/></g></g></g><g fill="#a8c082" fill-opacity="1"><g transform="translate(1259.135132, 1120.136879)"><g><path d="M 11.28125 0 L 11.28125 -69.921875 L 52.4375 -69.921875 L 52.4375 -64.234375 L 17.375 -64.234375 L 17.375 -38.453125 L 49.84375 -38.453125 L 49.84375 -32.859375 L 17.375 -32.859375 L 17.375 -5.6875 L 53.546875 -5.6875 L 53.546875 0 Z M 11.28125 0 "/></g></g></g><g fill="#a8c082" fill-opacity="1"><g transform="translate(1324.944058, 1120.136879)"><g><path d="M 11.28125 0 L 11.28125 -69.921875 L 16.984375 -69.921875 L 59.53125 -10.484375 L 59.53125 -69.921875 L 65.53125 -69.921875 L 65.53125 0 L 59.828125 0 L 17.28125 -59.53125 L 17.28125 0 Z M 11.28125 0 "/></g></g></g><g fill="#a8c082" fill-opacity="1"><g transform="translate(1406.730335, 1120.136879)"><g/></g></g><g fill="#a8c082" fill-opacity="1"><g transform="translate(1438.487526, 1120.136879)"><g><path d="M 41.859375 1.296875 C 34.992188 1.296875 28.894531 -0.25 23.5625 -3.34375 C 18.238281 -6.4375 14.046875 -10.710938 10.984375 -16.171875 C 7.921875 -21.640625 6.390625 -27.90625 6.390625 -34.96875 C 6.390625 -42.09375 7.921875 -48.367188 10.984375 -53.796875 C 14.046875 -59.222656 18.238281 -63.484375 23.5625 -66.578125 C 28.894531 -69.671875 34.992188 -71.21875 41.859375 -71.21875 C 47.179688 -71.21875 52.109375 -70.234375 56.640625 -68.265625 C 61.171875 -66.304688 65.066406 -63.546875 68.328125 -59.984375 C 71.585938 -56.421875 73.984375 -52.175781 75.515625 -47.25 L 69.125 -47.25 C 67.125 -52.78125 63.691406 -57.140625 58.828125 -60.328125 C 53.972656 -63.523438 48.347656 -65.125 41.953125 -65.125 C 36.296875 -65.125 31.25 -63.859375 26.8125 -61.328125 C 22.382812 -58.796875 18.90625 -55.265625 16.375 -50.734375 C 13.851562 -46.210938 12.59375 -40.957031 12.59375 -34.96875 C 12.59375 -29.039062 13.851562 -23.796875 16.375 -19.234375 C 18.90625 -14.671875 22.382812 -11.125 26.8125 -8.59375 C 31.25 -6.0625 36.296875 -4.796875 41.953125 -4.796875 C 48.484375 -4.796875 54.257812 -6.457031 59.28125 -9.78125 C 64.3125 -13.113281 67.789062 -17.675781 69.71875 -23.46875 L 76.109375 -23.46875 C 74.710938 -18.476562 72.347656 -14.117188 69.015625 -10.390625 C 65.691406 -6.660156 61.710938 -3.78125 57.078125 -1.75 C 52.453125 0.28125 47.378906 1.296875 41.859375 1.296875 Z M 41.859375 1.296875 "/></g></g></g><g fill="#a8c082" fill-opacity="1"><g transform="translate(1525.566307, 1120.136879)"><g><path d="M 11.28125 0 L 11.28125 -69.921875 L 17.375 -69.921875 L 17.375 -5.796875 L 52.84375 -5.796875 L 52.84375 0 Z M 11.28125 0 "/></g></g></g><g fill="#a8c082" fill-opacity="1"><g transform="translate(1586.781741, 1120.136879)"><g><path d="M 11.28125 0 L 11.28125 -69.921875 L 52.4375 -69.921875 L 52.4375 -64.234375 L 17.375 -64.234375 L 17.375 -38.453125 L 49.84375 -38.453125 L 49.84375 -32.859375 L 17.375 -32.859375 L 17.375 -5.6875 L 53.546875 -5.6875 L 53.546875 0 Z M 11.28125 0 "/></g></g></g><g fill="#a8c082" fill-opacity="1"><g transform="translate(1652.590637, 1120.136879)"><g><path d="M 2.203125 0 L 31.171875 -69.921875 L 36.953125 -69.921875 L 65.921875 0 L 59.53125 0 L 52.25 -17.578125 L 15.875 -17.578125 L 8.6875 0 Z M 18.28125 -23.171875 L 49.953125 -23.171875 L 34.0625 -61.625 Z M 18.28125 -23.171875 "/></g></g></g><g fill="#a8c082" fill-opacity="1"><g transform="translate(1725.789132, 1120.136879)"><g><path d="M 11.28125 0 L 11.28125 -69.921875 L 16.984375 -69.921875 L 59.53125 -10.484375 L 59.53125 -69.921875 L 65.53125 -69.921875 L 65.53125 0 L 59.828125 0 L 17.28125 -59.53125 L 17.28125 0 Z M 11.28125 0 "/></g></g></g></svg>